<svg width="133" height="132" viewBox="0 0 133 132" fill="none" xmlns="http://www.w3.org/2000/svg">
<path fill-rule="evenodd" clip-rule="evenodd" d="M83.625 28.7338C83.4495 28.797 83.2732 28.8595 83.0961 28.9212C81.5015 29.4774 79.8444 29.9747 78.125 30.4133C77.3059 30.6222 76.4725 30.8178 75.625 31V34.0818V41.172V41.3039V42.8125H78.125M83.625 13.4787V0.8125H69.625H15.4375H1.72616L1.44056 14.5209L0.40975 64H0.125027V77.6667L0.0803223 79.8125H0.125027V83.5C0.125027 93.4439 1.14629 102.914 4.54549 110.257C8.16876 118.083 14.2942 123.738 21.9389 127.271L21.9831 127.291L22.0274 127.311C29.1204 130.53 36.8854 131.938 45 131.938C51.912 131.938 58.5819 131.054 64.6033 128.796L64.6402 128.782L64.6771 128.768C70.1222 126.691 75.1131 123.552 79.0625 119.059V130H93.0625H118.313H132.313V116V14.8125V0.8125H118.313H103.438H96.5781L92.3744 6.23297C90.2068 9.02812 87.37 11.4872 83.625 13.4787ZM69.1875 47.125C71.1619 49.26 72.5923 52.4892 73.4788 56.8125ZM73.4788 56.8125C74.2013 60.3358 74.5625 64.5858 74.5625 69.5625V84C74.5625 91.1667 74.2084 96.4375 73.5 99.8125C72.8334 103.146 71.375 106.25 69.125 109.125C66.875 111.958 63.7292 114.146 59.6875 115.688C55.6875 117.188 50.7917 117.938 45 117.938C38.5 117.938 32.7709 116.812 27.8125 114.562C22.8542 112.271 19.3334 108.875 17.25 104.375C15.8525 101.356 14.9237 97.2313 14.4636 92C14.2379 89.433 14.125 86.5997 14.125 83.5V79.8125V78H14.375H24.3125H25.375H28.125H31.4115H35.3125H39.375V79.8125V84.3125C39.375 85.0919 39.3783 85.8444 39.3848 86.57C39.3851 86.6093 39.3855 86.6484 39.3859 86.6875C39.3972 87.8828 39.4175 89.0044 39.4466 90.0524C39.4753 91.0841 39.5126 92.0445 39.5585 92.9335C39.5665 93.0883 39.5748 93.2409 39.5833 93.3914C39.6835 95.1599 39.8197 96.6295 39.9921 97.8004C40.0132 97.9433 40.0347 98.0817 40.0568 98.2157C40.0587 98.2271 40.0606 98.2386 40.0625 98.25C40.5209 101 42.1042 102.375 44.8125 102.375C46.0625 102.375 47.0625 101.979 47.8125 101.188C48.6042 100.396 49.0209 99.5417 49.0625 98.625C49.0898 98.3245 49.1172 97.695 49.1445 96.7363C49.1878 95.2154 49.2312 92.8661 49.2745 89.6884C49.2872 88.759 49.2999 87.7587 49.3125 86.6875V84.3125V79.8125V78V69.2724V66.886V66.625C49.3125 66.3477 49.3104 66.0769 49.3062 65.8125C49.2959 65.1702 49.2731 64.566 49.2378 64C49.2168 63.663 49.1914 63.3396 49.1615 63.0297C49.1498 62.908 49.1374 62.7884 49.1243 62.6709C48.9346 60.9679 48.6015 59.7026 48.125 58.875C48.055 58.7534 47.9809 58.6372 47.9028 58.5263C47.0971 57.3838 45.8587 56.8125 44.1875 56.8125C43.0209 56.8125 42.0417 57.1667 41.25 57.875C40.4584 58.5833 39.9375 59.3542 39.6875 60.1875C39.5282 60.7927 39.4299 62.0312 39.3924 63.9029C39.3917 63.9351 39.3911 63.9674 39.3905 64C39.3802 64.5506 39.375 65.1548 39.375 65.8125H36.0757H35.9648H35.3036H28.3781H25.375H24.3125H14.375L14.4128 64L14.6667 51.8125L15.4375 14.8125H55.625H69.625V17V17.9701M83.625 28.7338C91.9649 25.7306 98.5691 21.0902 103.438 14.8125H104.313H118.313V28.8125V102V116H107.063H104.313H93.0625V102V61.75C93.0625 53.9167 92.875 49.2083 92.5 47.625C92.125 46.0417 91.0834 44.8542 89.375 44.0625M70.8985 17.1367V18.1367V33.3125V34.3125H69.8985H41.543V46.9281C45.1281 43.595 49.5381 41.9219 54.7227 41.9219C61.4317 41.9219 66.661 43.8149 70.2262 47.7548C72.0615 49.7414 73.378 52.5812 74.2401 56.1801C75.1043 59.7876 75.5274 64.2223 75.5274 69.4648V83C75.5274 89.7276 75.1967 94.7543 74.5109 98.0253C73.8525 101.313 72.4145 104.363 70.2172 107.171L70.2128 107.177C67.9718 109.999 64.8623 112.145 60.9385 113.641L60.9332 113.643C57.0388 115.104 52.3222 115.816 46.8125 115.816C40.6034 115.816 35.0869 114.742 30.286 112.563L30.2797 112.56C25.4394 110.323 21.9526 106.978 19.8894 102.522C17.8423 98.0999 16.8672 91.397 16.8672 82.5312V77.375V76.375H17.8672H41.5391H42.5391V77.375V83.293C42.5391 89.4242 42.7552 93.7063 43.17 96.195C43.3593 97.3307 43.7587 98.0565 44.2749 98.5047C44.7874 98.9498 45.5363 99.2266 46.6367 99.2266C47.578 99.2266 48.2373 98.9386 48.7233 98.4255L48.7326 98.4157L48.7421 98.4062C49.3487 97.7996 49.5968 97.2235 49.6222 96.6655L49.6232 96.6429L49.6252 96.6204C49.6987 95.8122 49.777 92.1411 49.8555 85.5135V66.7109C49.8555 64.9638 49.764 63.524 49.5887 62.38C49.4114 61.2226 49.1577 60.4343 48.8756 59.9443C48.3428 59.0188 47.4784 58.5117 46.0508 58.5117C45.177 58.5117 44.5039 58.7697 43.9637 59.2531C43.3348 59.8157 42.968 60.3824 42.795 60.9461C42.7268 61.216 42.6585 61.7481 42.6108 62.6063C42.5634 63.4594 42.5391 64.5718 42.5391 65.9492V66.9492H41.5391H18.1016H17.0805L17.1018 65.9284L18.0979 18.1159L18.1183 17.1367H19.0977H69.8985H70.8985ZM41.8321 60.6758C42.0664 59.8945 42.5547 59.1719 43.2969 58.5078C44.0391 57.8438 44.9571 57.5117 46.0508 57.5117C47.7696 57.5117 49 58.1562 49.7422 59.4453C50.4844 60.7344 50.8555 63.1562 50.8555 66.7109V85.5195C50.7774 92.1211 50.6992 95.8516 50.6211 96.7109C50.5821 97.5703 50.1914 98.3711 49.4492 99.1133C48.7461 99.8555 47.8086 100.227 46.6367 100.227C44.0977 100.227 42.6133 98.9375 42.1836 96.3594C41.7539 93.7812 41.5391 89.4258 41.5391 83.293V78.375V77.375H40.5391H18.8672H17.8672V78.375V82.5312C17.8672 91.3594 18.8438 97.8828 20.7969 102.102C22.75 106.32 26.0508 109.504 30.6992 111.652C35.3477 113.762 40.7188 114.816 46.8125 114.816C52.2422 114.816 56.8321 114.113 60.5821 112.707C64.3711 111.262 67.3203 109.211 69.4297 106.555C71.5391 103.859 72.9063 100.949 73.5313 97.8242C74.1953 94.6602 74.5274 89.7188 74.5274 83V69.4648C74.5274 59.0742 72.8477 52.0625 69.4883 48.4297C66.168 44.7578 61.2461 42.9219 54.7227 42.9219C49.4532 42.9219 45.06 44.723 41.543 48.3252C41.2014 48.6751 40.8681 49.0419 40.543 49.4258V47.9237V34.3125V33.3125H41.543H68.8985H69.8985V32.3125V19.1367V18.1367H68.8985H19.0977L18.1224 64.9492L18.1016 65.9492H19.1018H40.5391H41.5391C41.5391 63.1758 41.6367 61.418 41.8321 60.6758ZM116.543 17.1367V18.1367V113V114H115.543H91.8711H90.8711V113V62.1406C90.8711 58.4746 90.8272 55.5501 90.7401 53.3621C90.6516 51.1411 90.5207 49.7622 90.3707 49.1289C90.1015 47.9921 89.3662 47.102 87.9936 46.4659L87.9802 46.4597L87.9669 46.453C87.3518 46.1455 86.2306 45.8664 84.4951 45.6736C82.788 45.4839 80.5823 45.3867 77.8672 45.3867H75.5235H74.5235V44.3867V33.3125V32.5047L75.3133 32.3348C86.5782 29.9127 95.0428 24.9573 100.807 17.5239L101.108 17.1367H101.598H115.543H116.543ZM115.543 19.1367V18.1367H114.543H101.598C95.6602 25.793 86.9688 30.8516 75.5235 33.3125V43.3867V44.3867H76.5235H77.8672C83.336 44.3867 86.8516 44.7773 88.4141 45.5586C90.0157 46.3008 90.9922 47.4141 91.3438 48.8984C91.6953 50.3828 91.8711 54.7969 91.8711 62.1406V112V113H92.8711H114.543H115.543V112V19.1367ZM70.2403 21.042V22.042V35.9531V36.9531H69.2403H43.3311V48.2442C46.6077 45.26 50.6231 43.7617 55.3291 43.7617C61.4945 43.7617 66.3137 45.5017 69.6022 49.1356C71.2975 50.9708 72.509 53.5889 73.3011 56.8957C74.0953 60.2111 74.4834 64.2832 74.4834 69.0928V81.5C74.4834 87.6677 74.1805 92.2826 73.5499 95.29C72.9437 98.3171 71.6196 101.125 69.5981 103.708L69.5937 103.714C67.5284 106.314 64.6647 108.29 61.0566 109.666L61.0513 109.668C57.4695 111.011 53.1354 111.665 48.0782 111.665C42.3769 111.665 37.308 110.678 32.8944 108.675L32.8881 108.672C28.4351 106.614 25.2234 103.535 23.323 99.4299C21.4387 95.3597 20.5449 89.2004 20.5449 81.0703V76.3438V75.3438H21.5449H43.2442H44.2442V76.3438V81.7686C44.2442 87.3887 44.4424 91.3078 44.8214 93.5817C44.9928 94.61 45.3523 95.2552 45.8066 95.6497C46.2572 96.0411 46.9224 96.291 47.917 96.291C48.7606 96.291 49.3418 96.0339 49.7692 95.5828L49.7785 95.573L49.788 95.5634C50.3327 95.0187 50.5483 94.5093 50.5704 94.0229L50.5714 94.0004L50.5735 93.9778C50.6404 93.2413 50.7123 89.881 50.7842 83.8035V66.5684C50.7842 64.9694 50.7004 63.654 50.5406 62.6109C50.3787 61.5544 50.1483 60.8435 49.8971 60.4072C49.4261 59.5891 48.6642 59.1357 47.3799 59.1357C46.5972 59.1357 46.0007 59.366 45.5223 59.7941C44.9554 60.3013 44.6292 60.8077 44.4757 61.3064C44.4155 61.5457 44.3533 62.0259 44.3098 62.8104C44.2664 63.5902 44.2442 64.6083 44.2442 65.8701V66.8701H43.2442H21.7598H20.7387L20.76 65.8493L21.6731 22.0212L21.6935 21.042H22.6729H69.2403H70.2403ZM43.5127 61.0361C43.7276 60.32 44.1752 59.6576 44.8555 59.0488C45.5358 58.4401 46.3773 58.1357 47.3799 58.1357C48.9554 58.1357 50.0834 58.7266 50.7637 59.9082C51.444 61.0898 51.7842 63.3099 51.7842 66.5684V83.8096C51.7126 89.861 51.641 93.2806 51.5694 94.0684C51.5336 94.8561 51.1755 95.5902 50.4951 96.2705C49.8506 96.9508 48.9912 97.291 47.917 97.291C45.5895 97.291 44.2289 96.1094 43.835 93.7461C43.4411 91.3828 43.2442 87.3903 43.2442 81.7686V77.3438V76.3438H42.2442H22.5449H21.5449V77.3438V81.0703C21.5449 89.1628 22.4401 95.1426 24.2305 99.0098C26.0209 102.877 29.0466 105.795 33.3076 107.765C37.5687 109.698 42.4922 110.665 48.0782 110.665C53.0554 110.665 57.2627 110.021 60.7002 108.731C64.1735 107.407 66.877 105.527 68.8106 103.092C70.7442 100.621 71.9974 97.9535 72.5703 95.0889C73.1791 92.1885 73.4834 87.6589 73.4834 81.5V69.0928C73.4834 59.568 71.9437 53.1406 68.8643 49.8105C65.8207 46.4447 61.3089 44.7617 55.3291 44.7617C50.5403 44.7617 46.541 46.3845 43.3311 49.63C42.9888 49.9761 42.6554 50.3406 42.3311 50.7236V49.2253V36.9531V35.9531H43.3311H68.2403H69.2403V34.9531V23.042V22.042H68.2403H22.6729L21.7806 64.8701L21.7598 65.8701H22.76H42.2442H43.2442C43.2442 63.3278 43.3337 61.7165 43.5127 61.0361ZM112.081 21.042V22.042V109V110H111.081H89.3819H88.3819V109V62.3789C88.3819 59.0189 88.3416 56.3393 88.2618 54.3352C88.1807 52.2981 88.0607 51.0421 87.9254 50.4707C87.6854 49.4576 87.0316 48.6603 85.7925 48.086L85.779 48.0798L85.7657 48.0731C85.2158 47.7982 84.2003 47.5435 82.6113 47.3669C81.0507 47.1935 79.0321 47.1045 76.5449 47.1045H74.3965H73.3965V46.1045V35.9531V35.1453L74.1863 34.9755C84.4975 32.7584 92.2378 28.2245 97.5077 21.4292L97.8079 21.042H98.2979H111.081H112.081ZM111.081 23.042V22.042H110.081H98.2979C92.8552 29.0602 84.8881 33.6973 74.3965 35.9531V45.1045V46.1045H75.3965H76.5449C81.558 46.1045 84.7806 46.4626 86.2129 47.1787C87.681 47.8591 88.5762 48.8796 88.8985 50.2402C89.2207 51.6009 89.3819 55.6471 89.3819 62.3789V108V109H90.3819H110.081H111.081V108V23.042ZM70.5821 24.9473V25.9473V38.5938V39.5938H69.5821H46.1192V49.5634C49.0867 46.9261 52.7074 45.6016 56.9356 45.6016C62.5574 45.6016 66.9664 47.1886 69.9782 50.5165C71.5335 52.2003 72.64 54.5967 73.3622 57.6113C74.0864 60.6345 74.4395 64.344 74.4395 68.7207V80C74.4395 85.6078 74.1642 89.8109 73.589 92.5546C73.0348 95.3213 71.8247 97.8868 69.9789 100.245L69.9746 100.251C68.0851 102.63 65.4671 104.434 62.1748 105.69L62.1695 105.692C58.9001 106.918 54.9485 107.514 50.3438 107.514C45.1503 107.514 40.529 106.615 36.5028 104.788L36.4965 104.785C32.4309 102.906 29.4942 100.091 27.7566 96.3381C26.035 92.6194 25.2227 87.0038 25.2227 79.6094V75.3125V74.3125H26.2227H45.9492H46.9492V75.3125V80.2441C46.9492 85.3532 47.1296 88.9094 47.4727 90.9684C47.6262 91.8893 47.9459 92.454 48.3383 92.7948C48.7271 93.1324 49.3084 93.3555 50.1973 93.3555C50.9432 93.3555 51.4462 93.1293 51.8151 92.74L51.8244 92.7302L51.8339 92.7206C52.3168 92.2378 52.4998 91.7951 52.5186 91.3804L52.5197 91.3578L52.5217 91.3352C52.5822 90.6703 52.6475 87.621 52.7129 82.0937V66.4258C52.7129 64.9749 52.6369 63.7841 52.4925 62.8419C52.3461 61.8863 52.1388 61.2527 51.9186 60.8701C51.5094 60.1594 50.8501 59.7598 49.709 59.7598C49.0175 59.7598 48.4974 59.9624 48.0809 60.3351C47.576 60.7868 47.2905 61.2329 47.1564 61.6667C47.1042 61.8756 47.0482 62.3039 47.0087 63.0145C46.9695 63.7211 46.9492 64.6447 46.9492 65.791V66.791H45.9492H26.418H25.3969L25.4182 65.7702L26.2483 25.9264L26.2687 24.9473H27.2481H69.5821H70.5821ZM46.1934 61.3965C46.3887 60.7454 46.7956 60.1432 47.4141 59.5898C48.0326 59.0365 48.7976 58.7598 49.709 58.7598C51.1413 58.7598 52.1667 59.2969 52.7852 60.3711C53.4037 61.4453 53.7129 63.4635 53.7129 66.4258V82.0996C53.6478 87.6009 53.5827 90.7096 53.5176 91.4258C53.4851 92.1419 53.1595 92.8092 52.541 93.4277C51.9551 94.0462 51.1739 94.3555 50.1973 94.3555C48.0814 94.3555 46.8444 93.2812 46.4864 91.1328C46.1283 88.9844 45.9492 85.3548 45.9492 80.2441V76.3125V75.3125H44.9492H27.2227H26.2227V76.3125V79.6094C26.2227 86.9661 27.0365 92.4023 28.6641 95.918C30.2917 99.4336 33.0423 102.087 36.916 103.877C40.7897 105.635 45.2657 106.514 50.3438 106.514C54.8685 106.514 58.6934 105.928 61.8184 104.756C64.9759 103.551 67.4336 101.842 69.1914 99.6289C70.9492 97.3828 72.0886 94.9577 72.6094 92.3535C73.1628 89.7168 73.4395 85.599 73.4395 80V68.7207C73.4395 60.0618 72.0397 54.2188 69.2403 51.1914C66.4733 48.1315 62.3718 46.6016 56.9356 46.6016C52.6272 46.6016 49.0218 48.0464 46.1192 50.936C45.776 51.2776 45.4427 51.6395 45.1192 52.0215V50.5276V39.5938V38.5938H46.1192H68.5821H69.5821V37.5938V26.9473V25.9473H68.5821H27.2481L26.4388 64.791L26.418 65.791H27.4182H44.9492H45.9492C45.9492 63.4798 46.0306 62.015 46.1934 61.3965ZM108.619 24.9473V25.9473V105V106H107.619H87.8926H86.8926V105V62.6172C86.8926 59.5631 86.856 57.1285 86.7835 55.3083C86.7097 53.4552 86.6008 52.3221 86.4801 51.8125C86.2694 50.9231 85.697 50.2185 84.5913 49.7061L84.5778 49.6999L84.5645 49.6933C84.0797 49.4508 83.17 49.2206 81.7275 49.0603C80.3134 48.9032 78.482 48.8223 76.2227 48.8223H74.2696H73.2696V47.8223V38.5938V37.7859L74.0593 37.6161C83.4168 35.6041 90.4328 31.4918 95.2079 25.3344L95.5081 24.9473H95.9981H107.619H108.619ZM107.619 26.9473V25.9473H106.619H95.9981C91.0502 32.3275 83.8073 36.543 74.2696 38.5938V46.8223V47.8223H75.2696H76.2227C80.78 47.8223 83.7097 48.1478 85.0117 48.7988C86.3464 49.4173 87.1602 50.3451 87.4532 51.582C87.7461 52.819 87.8926 56.4974 87.8926 62.6172V104V105H88.8926H106.619H107.619V104V26.9473Z" fill="black"/>
</svg>